<svg width="40" height="40" viewBox="0 0 40 40" fill="none" xmlns="http://www.w3.org/2000/svg">
<rect width="40" height="40" rx="10" fill="#140C6F"/>
<path d="M24.4583 13.375C24.6663 13.167 24.9131 13.0021 25.1848 12.8896C25.4564 12.777 25.7476 12.7191 26.0417 12.7191C26.3357 12.7191 26.6269 12.777 26.8986 12.8896C27.1702 13.0021 27.4171 13.167 27.625 13.375C27.8329 13.5829 27.9979 13.8297 28.1104 14.1014C28.2229 14.3731 28.2808 14.6642 28.2808 14.9583C28.2808 15.2523 28.2229 15.5435 28.1104 15.8152C27.9979 16.0869 27.8329 16.3337 27.625 16.5416L16.9375 27.2291L12.5833 28.4166L13.7708 24.0625L24.4583 13.375Z" stroke="white" stroke-linecap="round" stroke-linejoin="round"/>
</svg>
