<svg width="237" height="191" viewBox="0 0 237 191" fill="none" xmlns="http://www.w3.org/2000/svg">
<g clip-path="url(#clip0_74_448)">
<path d="M67.5149 128.492C82.5433 128.492 94.7262 116.314 94.7262 101.293C94.7262 86.2717 82.5433 74.0945 67.5149 74.0945C52.4865 74.0945 40.3036 86.2717 40.3036 101.293C40.3036 116.314 52.4865 128.492 67.5149 128.492Z" fill="#E6E6E6"/>
<path d="M60.1629 141.01L66.8566 145.156V117.132L59.3538 112.485C58.7335 112.101 58.2803 111.497 58.0839 110.795C58.8006 110.658 59.5427 110.795 60.163 111.18L66.8566 115.325V104.458C66.8566 102.356 67.1145 100.262 67.6246 98.2223C68.1348 100.262 68.3927 102.356 68.3927 104.458V122.195L78.2677 116.079C79.0562 115.591 79.9685 115.339 80.896 115.354C80.4968 116.191 79.8653 116.896 79.0768 117.384L68.3927 124.002V190.837H66.8565V146.962L59.3538 142.315C58.7335 141.931 58.2803 141.328 58.0839 140.626C58.8006 140.489 59.5427 140.626 60.1629 141.01Z" fill="#CCCCCC"/>
<path d="M27.2113 130.801C42.2397 130.801 54.4226 118.624 54.4226 103.602C54.4226 88.581 42.2397 76.4038 27.2113 76.4038C12.1829 76.4038 0 88.581 0 103.602C0 118.624 12.1829 130.801 27.2113 130.801Z" fill="#E6E6E6"/>
<path d="M34.5632 143.32L27.8696 147.465V119.441L35.3723 114.794C35.9926 114.41 36.4459 113.807 36.6423 113.104C35.9255 112.967 35.1835 113.105 34.5632 113.489L27.8696 117.635V106.768C27.8696 104.665 27.6116 102.571 27.1015 100.532C26.5914 102.571 26.3335 104.665 26.3335 106.768V124.505L16.4585 118.388C15.67 117.9 14.7577 117.648 13.8302 117.664C14.2294 118.501 14.8609 119.205 15.6494 119.694L26.3335 126.311V190.423H27.8696V149.272L35.3723 144.625C35.9926 144.241 36.4459 143.637 36.6423 142.935C35.9255 142.798 35.1835 142.935 34.5632 143.32Z" fill="#CCCCCC"/>
<path d="M46.9781 93.6581C72.8532 93.6581 93.8291 72.692 93.8291 46.829C93.8291 20.9661 72.8532 0 46.9781 0C21.103 0 0.127075 20.9661 0.127075 46.829C0.127075 72.692 21.103 93.6581 46.9781 93.6581Z" fill="#E6E6E6"/>
<path d="M59.6362 115.212L48.1115 122.35V74.0991L61.0293 66.0981C62.0973 65.4367 62.8777 64.3983 63.2159 63.1888L63.2159 63.1888H63.2159C61.9818 62.9532 60.7042 63.1895 59.6362 63.851L48.1115 70.9892V52.2789C48.1115 48.6593 47.6674 45.0534 46.7891 41.5419C45.9108 45.0534 45.4667 48.6593 45.4667 52.2789V82.8175L28.4645 72.2867C27.1069 71.4459 25.5361 71.0127 23.9392 71.0389C24.6266 72.4798 25.7138 73.693 27.0714 74.5339L45.4667 85.9275V190.526H48.1115V125.46L61.0293 117.459C62.0973 116.798 62.8777 115.759 63.2159 114.55L63.2159 114.55H63.2159C61.9818 114.314 60.7042 114.55 59.6362 115.212Z" fill="#CCCCCC"/>
<path d="M237 190.44H9.40015V191H237V190.44Z" fill="#3F3D56"/>
<path d="M179.987 45.0494H179.351V13.1612C179.351 10.2676 178.201 7.49262 176.154 5.44658C174.107 3.40055 171.331 2.2511 168.436 2.2511H97.3875C94.4926 2.2511 91.7163 3.40055 89.6693 5.44658C87.6223 7.49262 86.4723 10.2676 86.4723 13.1612V27.1326H86.2315C86.0615 27.1326 85.8984 27.2001 85.7782 27.3203C85.658 27.4405 85.5904 27.6034 85.5904 27.7734V34.0218C85.5904 34.1917 85.658 34.3547 85.7782 34.4749C85.8984 34.595 86.0615 34.6626 86.2315 34.6626H86.4723V40.9166H86.1755C86.0913 40.9165 86.008 40.9331 85.9302 40.9653C85.8524 40.9975 85.7817 41.0447 85.7222 41.1042C85.6626 41.1637 85.6154 41.2344 85.5832 41.3121C85.551 41.3899 85.5344 41.4732 85.5344 41.5573V53.3824C85.5344 53.5524 85.602 53.7154 85.7222 53.8355C85.8424 53.9557 86.0055 54.0232 86.1755 54.0232H86.4723V58.6095H86.2035C86.1193 58.6095 86.036 58.6261 85.9582 58.6582C85.8804 58.6904 85.8097 58.7376 85.7502 58.7971C85.6907 58.8566 85.6435 58.9272 85.6112 59.005C85.579 59.0827 85.5624 59.166 85.5624 59.2502V71.1873C85.5624 71.3573 85.63 71.5203 85.7502 71.6404C85.8704 71.7606 86.0335 71.8281 86.2035 71.8281H86.4723V180.015C86.4723 182.908 87.6222 185.683 89.6693 187.729C91.7163 189.775 94.4926 190.925 97.3875 190.925H168.436C171.331 190.925 174.107 189.775 176.154 187.729C178.201 185.683 179.351 182.908 179.351 180.015V67.9191H179.987C180.157 67.9191 180.32 67.8516 180.44 67.7315C180.561 67.6113 180.628 67.4483 180.628 67.2784V45.6902C180.628 45.5202 180.561 45.3573 180.44 45.2371C180.32 45.1169 180.157 45.0494 179.987 45.0494Z" fill="#3F3D56"/>
<path d="M135.839 10.6567H125.035C124.711 10.6564 124.4 10.5275 124.171 10.2983C123.941 10.0691 123.812 9.75831 123.812 9.43414V8.96659C123.812 8.64242 123.941 8.33165 124.171 8.10245C124.4 7.87325 124.711 7.74435 125.035 7.74402H135.839C136.163 7.74435 136.474 7.87325 136.703 8.10245C136.933 8.33165 137.062 8.64242 137.062 8.96659V9.43414C137.062 9.75831 136.933 10.0691 136.703 10.2983C136.474 10.5275 136.163 10.6564 135.839 10.6567Z" fill="white"/>
<path d="M140.377 10.696C141.202 10.696 141.872 10.027 141.872 9.20176C141.872 8.37651 141.202 7.70752 140.377 7.70752C139.551 7.70752 138.882 8.37651 138.882 9.20176C138.882 10.027 139.551 10.696 140.377 10.696Z" fill="white"/>
<path d="M166.239 7.16467H155.601V8.44344C155.601 10.0539 154.96 11.5983 153.821 12.7371C152.682 13.8758 151.137 14.5155 149.526 14.5155H115.635C114.837 14.5159 114.048 14.3593 113.311 14.0546C112.574 13.7499 111.904 13.3032 111.34 12.7399C110.776 12.1765 110.329 11.5077 110.023 10.7714C109.718 10.0352 109.56 9.24607 109.56 8.44904V7.16467H99.5852C97.6288 7.16467 95.7525 7.94149 94.3691 9.32424C92.9857 10.707 92.2085 12.5824 92.2085 14.5379V178.635C92.2085 180.591 92.9857 182.466 94.3691 183.849C95.7525 185.232 97.6288 186.008 99.5852 186.008H166.239C168.194 186.008 170.07 185.232 171.453 183.85C172.836 182.467 173.613 180.593 173.613 178.638V14.5379C173.613 13.57 173.423 12.6115 173.052 11.7171C172.682 10.8228 172.139 10.0101 171.455 9.3254C170.77 8.64073 169.958 8.09752 169.063 7.72678C168.169 7.35604 167.21 7.16504 166.241 7.16467H166.239Z" fill="white"/>
<path d="M147.188 166.096H118.633C116.591 166.096 114.633 165.285 113.189 163.842C111.745 162.399 110.934 160.442 110.934 158.401C110.934 156.36 111.745 154.403 113.189 152.96C114.633 151.517 116.591 150.706 118.633 150.706H147.188C149.23 150.706 151.188 151.517 152.632 152.96C154.076 154.403 154.887 156.36 154.887 158.401C154.887 160.442 154.076 162.399 152.632 163.842C151.188 165.285 149.23 166.096 147.188 166.096Z" fill="#C2F1FB"/>
<path d="M158.386 102.888H107.435C106.73 102.888 106.053 102.608 105.554 102.11C105.056 101.611 104.775 100.935 104.775 100.23C104.775 99.5248 105.056 98.8487 105.554 98.3501C106.053 97.8516 106.73 97.5715 107.435 97.5715H158.386C159.091 97.5715 159.768 97.8516 160.267 98.3501C160.765 98.8487 161.046 99.5248 161.046 100.23C161.046 100.935 160.765 101.611 160.267 102.11C159.768 102.608 159.091 102.888 158.386 102.888Z" fill="#E6E6E6"/>
<path d="M158.386 110.723H107.435C106.73 110.723 106.053 110.443 105.554 109.944C105.056 109.446 104.775 108.77 104.775 108.065C104.775 107.36 105.056 106.684 105.554 106.185C106.053 105.687 106.73 105.406 107.435 105.406H158.386C159.091 105.406 159.768 105.687 160.267 106.185C160.765 106.684 161.046 107.36 161.046 108.065C161.046 108.77 160.765 109.446 160.267 109.944C159.768 110.443 159.091 110.723 158.386 110.723Z" fill="#E6E6E6"/>
<path d="M158.386 118.558H107.435C106.73 118.558 106.053 118.278 105.554 117.779C105.056 117.281 104.775 116.605 104.775 115.9C104.775 115.195 105.056 114.519 105.554 114.02C106.053 113.522 106.73 113.241 107.435 113.241H158.386C159.091 113.241 159.768 113.522 160.267 114.02C160.765 114.519 161.046 115.195 161.046 115.9C161.046 116.605 160.765 117.281 160.267 117.779C159.768 118.278 159.091 118.558 158.386 118.558Z" fill="#E6E6E6"/>
<path d="M158.386 126.393H107.435C106.73 126.393 106.053 126.113 105.554 125.614C105.056 125.116 104.775 124.44 104.775 123.735C104.775 123.03 105.056 122.353 105.554 121.855C106.053 121.356 106.73 121.076 107.435 121.076H158.386C159.091 121.076 159.768 121.356 160.267 121.855C160.765 122.353 161.046 123.03 161.046 123.735C161.046 124.44 160.765 125.116 160.267 125.614C159.768 126.113 159.091 126.393 158.386 126.393Z" fill="#E6E6E6"/>
<path d="M123.672 134.228H107.435C106.73 134.228 106.053 133.948 105.554 133.449C105.056 132.951 104.775 132.275 104.775 131.57C104.775 130.865 105.056 130.188 105.554 129.69C106.053 129.191 106.73 128.911 107.435 128.911H123.672C124.378 128.911 125.054 129.191 125.553 129.69C126.052 130.188 126.332 130.865 126.332 131.57C126.332 132.275 126.052 132.951 125.553 133.449C125.054 133.948 124.378 134.228 123.672 134.228H123.672Z" fill="#E6E6E6"/>
<path d="M166.361 81.1038H99.4603C98.8689 81.1032 98.3019 80.8681 97.8837 80.4501C97.4656 80.0321 97.2303 79.4654 97.2296 78.8743V29.245C97.2303 28.6539 97.4656 28.0872 97.8837 27.6692C98.3019 27.2513 98.8689 27.0162 99.4603 27.0155H166.361C166.952 27.0162 167.519 27.2513 167.937 27.6692C168.355 28.0872 168.591 28.6539 168.591 29.245V78.8743C168.591 79.4654 168.355 80.0321 167.937 80.4501C167.519 80.8681 166.952 81.1032 166.361 81.1038Z" fill="#E6E6E6"/>
<g opacity="0.1">
<path d="M178.21 66.9369C178.21 66.5526 178.21 66.1665 178.21 65.7784C178.195 66.0777 178.195 66.3775 178.21 66.6767C178.208 66.7634 178.21 66.8502 178.21 66.9369Z" fill="black"/>
</g>
<path d="M189.37 88.9403C193.427 88.9403 196.716 85.6532 196.716 81.5982C196.716 77.5433 193.427 74.2561 189.37 74.2561C185.313 74.2561 182.025 77.5433 182.025 81.5982C182.025 85.6532 185.313 88.9403 189.37 88.9403Z" fill="#FFB8B8"/>
<path d="M208.475 141.134C208.762 140.872 208.987 140.55 209.136 140.191C209.285 139.832 209.353 139.445 209.336 139.057C209.318 138.668 209.216 138.289 209.036 137.944C208.856 137.6 208.603 137.299 208.294 137.063L207.293 128.17L201.715 129.692L204.431 137.696C204.068 138.241 203.919 138.9 204.01 139.547C204.101 140.195 204.426 140.787 204.925 141.211C205.423 141.634 206.06 141.861 206.714 141.847C207.369 141.833 207.995 141.579 208.475 141.134V141.134Z" fill="#FFB8B8"/>
<path d="M212.55 186.158L215.629 184.168L209.413 171.352L204.869 174.289L212.55 186.158Z" fill="#FFB8B8"/>
<path d="M223.416 183.187L213.74 189.442L211.322 185.706L217.399 181.777C217.872 181.471 218.4 181.262 218.953 181.16C219.507 181.059 220.075 181.067 220.625 181.185C221.176 181.303 221.697 181.528 222.161 181.848C222.624 182.167 223.02 182.575 223.325 183.047L223.416 183.187Z" fill="#2F2E41"/>
<path d="M185.286 187.461H188.952L190.697 173.325H185.286V187.461Z" fill="#FFB8B8"/>
<path d="M196.023 190.864H184.5V186.414H191.738C192.874 186.414 193.964 186.865 194.768 187.669C195.572 188.472 196.023 189.561 196.023 190.698V190.864V190.864Z" fill="#2F2E41"/>
<path d="M200.001 96.1766C199.514 97.7636 201.242 99.4911 201.8 101.051C202.358 102.611 203.109 104.111 203.41 105.744C203.617 106.866 208.294 131.655 208.069 133.164C206.629 132.733 205.079 132.875 203.741 133.561C202.807 131.921 202.246 130.095 202.097 128.213C202.041 127.097 202.051 125.979 202.129 124.865C202.274 121.711 200.906 118.553 200.861 115.397C200.875 114.303 200.788 113.21 200.602 112.133C200.453 111.391 200.466 110.004 200.305 109.265C200.049 108.09 201.151 107.548 201.09 106.345L200.754 99.77C200.684 98.6183 199.527 97.2059 200.001 96.1766Z" fill="#2F2E41"/>
<path d="M183.417 123.761C182.238 125.599 179.757 125.997 178.021 127.314C175.368 129.338 182.135 174.808 184.369 182.885C190.264 182.002 190.47 182.004 191.148 181.707C191.826 181.409 192.439 158.314 193.871 153.553C196.552 156.078 204.989 177.78 206.769 182.591C213.842 180.823 206.769 182.591 215.905 180.234C215.829 178.567 202.404 124.235 201.914 119.955C195.772 121.178 189.542 122.542 183.417 123.761Z" fill="#2F2E41"/>
<path d="M182.622 89.6179C181.894 91.7739 182.886 100.162 182.958 102.048C183.062 103.761 183.062 105.478 182.958 107.19C182.706 110.156 181.824 113.141 182.416 116.057C182.804 117.986 183.493 119.779 183.654 121.743C183.763 123.103 183.729 124.486 184.16 125.776C185.748 125.096 199.824 122.758 200.859 121.398C200.151 117.982 200.836 114.454 200.366 110.997C200.094 109.004 199.42 107.086 199.103 105.102C198.711 102.654 198.876 100.115 198.162 97.7364C197.766 96.5323 197.262 95.3661 196.658 94.2518C196.043 92.9845 195.271 91.9435 195.007 91.9439C194.338 91.9802 182.665 89.4257 182.622 89.6179Z" fill="#C2F1FB"/>
<path d="M179.928 140.95C179.928 140.95 182.369 136.082 182.491 133.298C182.534 132.298 185.274 128.32 186.508 127.417C189.434 125.275 191.591 110.915 190.602 107.431C188.892 101.407 186.011 95.7912 183.088 90.255C183 90.0485 182.859 89.8692 182.679 89.7358C182.085 89.3663 181.441 90.094 181.035 90.663C179.658 92.5923 177.39 93.6239 175.312 94.7642C173.235 95.9046 171.109 97.4235 170.481 99.7065C170.059 101.239 170.388 102.865 170.708 104.418C171.028 105.971 172.146 107.204 172.992 108.512C173.973 109.956 176.52 116.358 176.501 117.118C176.551 121.815 176.598 126.529 176.029 131.194C175.709 133.831 175.428 139.129 175.428 139.129L179.928 140.95Z" fill="#2F2E41"/>
<path d="M202.092 135.917C197.599 125.694 197.851 114.062 194.995 103.27C194.147 100.067 193.013 96.8477 193.217 93.54C193.253 92.9483 193.378 92.284 193.873 91.9531C194.313 91.6583 194.911 91.7377 195.395 91.9531C195.878 92.1684 196.291 92.5198 196.755 92.7601C197.506 93.1433 198.379 93.2521 199.101 93.6851C200.171 94.329 200.718 95.5532 201.197 96.7049C202.219 99.1647 203.238 101.693 203.32 104.359C203.492 109.537 201.194 114.513 202.392 119.548C202.65 120.541 202.959 121.52 203.317 122.482C204.518 125.955 205.503 129.499 206.266 133.094C206.4 133.709 202.281 136.347 202.092 135.917Z" fill="#2F2E41"/>
<path d="M187.828 133.498C187.888 133.114 187.863 132.722 187.755 132.349C187.647 131.975 187.459 131.63 187.203 131.338C186.947 131.045 186.63 130.813 186.274 130.656C185.919 130.499 185.533 130.422 185.145 130.43L178.808 124.108L175.401 128.777L182.521 133.336C182.579 133.987 182.873 134.595 183.349 135.044C183.824 135.494 184.449 135.753 185.103 135.773C185.757 135.793 186.395 135.572 186.898 135.153C187.4 134.734 187.731 134.145 187.828 133.498Z" fill="#FFB8B8"/>
<path d="M167.639 119.14C167.743 120.09 175.726 130.108 180.064 133.378C179.812 132.088 183.212 127.88 184.312 127.222C181.563 124.63 175.82 118.618 175.63 118.29C175.008 117.091 175.63 115.658 176.172 114.418C177.88 110.475 178.685 106.002 177.589 101.847C177.177 100.287 176.455 98.7248 175.142 97.7659C174.568 97.3487 173.793 97.063 173.155 97.3804C172.888 97.534 172.656 97.7418 172.475 97.9903C170.44 100.464 167.562 118.435 167.639 119.14Z" fill="#2F2E41"/>
<path d="M186.239 88.0228C186.668 86.204 184.5 82.2903 184.929 80.4714C185.22 79.2397 188.117 80.077 188.794 79.0072C189.47 77.9373 190.603 77.0705 191.869 77.0563C193.324 77.04 194.756 78.119 196.134 77.6526C197.528 77.1812 197.974 75.2734 197.357 73.9378C196.741 72.6022 195.414 71.7511 194.102 71.0843C191.869 69.9486 189.269 69.1193 186.878 69.8707C185.433 70.3249 184.225 71.309 183.056 72.2716C181.99 73.149 180.907 74.0464 180.162 75.2083C178.702 77.4846 178.79 80.5516 180.037 82.9507C181.285 85.3497 183.557 87.1102 186.061 88.1321" fill="#2F2E41"/>
</g>
<defs>
<clipPath id="clip0_74_448">
<rect width="237" height="191" fill="white"/>
</clipPath>
</defs>
</svg>
