<svg width="134" height="34" viewBox="0 0 134 34" fill="none" xmlns="http://www.w3.org/2000/svg">
<path d="M0.15 1.5H9.06V25.935H24.09V33H0.15V1.5ZM43.0174 33.63C39.6874 33.63 36.6874 32.925 34.0174 31.515C31.3774 30.105 29.2924 28.155 27.7624 25.665C26.2624 23.175 25.5124 20.37 25.5124 17.25C25.5124 14.13 26.2624 11.325 27.7624 8.835C29.2924 6.345 31.3774 4.395 34.0174 2.985C36.6874 1.575 39.6874 0.869998 43.0174 0.869998C46.3474 0.869998 49.3324 1.575 51.9724 2.985C54.6424 4.395 56.7274 6.345 58.2274 8.835C59.7574 11.325 60.5224 14.13 60.5224 17.25C60.5224 20.37 59.7574 23.175 58.2274 25.665C56.7274 28.155 54.6424 30.105 51.9724 31.515C49.3324 32.925 46.3474 33.63 43.0174 33.63ZM43.0174 26.25C44.6074 26.25 46.0474 25.875 47.3374 25.125C48.6274 24.375 49.6474 23.325 50.3974 21.975C51.1474 20.595 51.5224 19.02 51.5224 17.25C51.5224 15.48 51.1474 13.92 50.3974 12.57C49.6474 11.19 48.6274 10.125 47.3374 9.375C46.0474 8.625 44.6074 8.25 43.0174 8.25C41.4274 8.25 39.9874 8.625 38.6974 9.375C37.4074 10.125 36.3874 11.19 35.6374 12.57C34.8874 13.92 34.5124 15.48 34.5124 17.25C34.5124 19.02 34.8874 20.595 35.6374 21.975C36.3874 23.325 37.4074 24.375 38.6974 25.125C39.9874 25.875 41.4274 26.25 43.0174 26.25ZM86.2941 16.575H94.1691V29.625C92.3691 30.915 90.2991 31.905 87.9591 32.595C85.6191 33.285 83.2791 33.63 80.9391 33.63C77.6391 33.63 74.6691 32.94 72.0291 31.56C69.3891 30.15 67.3191 28.2 65.8191 25.71C64.3191 23.22 63.5691 20.4 63.5691 17.25C63.5691 14.1 64.3191 11.28 65.8191 8.79C67.3191 6.3 69.4041 4.365 72.0741 2.985C74.7441 1.575 77.7591 0.869998 81.1191 0.869998C84.0591 0.869998 86.6991 1.365 89.0391 2.355C91.3791 3.345 93.3291 4.77 94.8891 6.63L89.2191 11.76C87.0891 9.42 84.5391 8.25 81.5691 8.25C78.8691 8.25 76.6941 9.075 75.0441 10.725C73.3941 12.345 72.5691 14.52 72.5691 17.25C72.5691 18.99 72.9441 20.55 73.6941 21.93C74.4441 23.28 75.4941 24.345 76.8441 25.125C78.1941 25.875 79.7391 26.25 81.4791 26.25C83.1891 26.25 84.7941 25.905 86.2941 25.215V16.575ZM115.703 33.63C112.373 33.63 109.373 32.925 106.703 31.515C104.063 30.105 101.978 28.155 100.448 25.665C98.948 23.175 98.198 20.37 98.198 17.25C98.198 14.13 98.948 11.325 100.448 8.835C101.978 6.345 104.063 4.395 106.703 2.985C109.373 1.575 112.373 0.869998 115.703 0.869998C119.033 0.869998 122.018 1.575 124.658 2.985C127.328 4.395 129.413 6.345 130.913 8.835C132.443 11.325 133.208 14.13 133.208 17.25C133.208 20.37 132.443 23.175 130.913 25.665C129.413 28.155 127.328 30.105 124.658 31.515C122.018 32.925 119.033 33.63 115.703 33.63ZM115.703 26.25C117.293 26.25 118.733 25.875 120.023 25.125C121.313 24.375 122.333 23.325 123.083 21.975C123.833 20.595 124.208 19.02 124.208 17.25C124.208 15.48 123.833 13.92 123.083 12.57C122.333 11.19 121.313 10.125 120.023 9.375C118.733 8.625 117.293 8.25 115.703 8.25C114.113 8.25 112.673 8.625 111.383 9.375C110.093 10.125 109.073 11.19 108.323 12.57C107.573 13.92 107.198 15.48 107.198 17.25C107.198 19.02 107.573 20.595 108.323 21.975C109.073 23.325 110.093 24.375 111.383 25.125C112.673 25.875 114.113 26.25 115.703 26.25Z" fill="white"/>
</svg>
