<svg width="42" height="30" viewBox="0 0 42 30" fill="none" xmlns="http://www.w3.org/2000/svg">
<path d="M26.06 28V25.0406C26.06 23.4709 25.3482 21.9655 24.0813 20.8555C22.8143 19.7455 21.096 19.1219 19.3043 19.1219H9.17073C7.37901 19.1219 5.66067 19.7455 4.39374 20.8555C3.1268 21.9655 2.41504 23.4709 2.41504 25.0406V28" stroke="white" stroke-width="3" stroke-linecap="round" stroke-linejoin="round"/>
<path d="M14.2375 14.6829C18.0783 14.6829 21.1919 11.8438 21.1919 8.34146C21.1919 4.83917 18.0783 2 14.2375 2C10.3967 2 7.28308 4.83917 7.28308 8.34146C7.28308 11.8438 10.3967 14.6829 14.2375 14.6829Z" stroke="white" stroke-width="3" stroke-linecap="round" stroke-linejoin="round"/>
<path d="M40.4323 14.6061L35.2481 19.3333L30.064 14.6061" stroke="white" stroke-width="3" stroke-linecap="round" stroke-linejoin="round"/>
</svg>
